<?xml version="1.0" encoding="utf-8"?>
<!-- Generator: Adobe Illustrator 22.0.1, SVG Export Plug-In . SVG Version: 6.00 Build 0)  -->
<svg version="1.1" id="Layer_1" xmlns="http://www.w3.org/2000/svg" xmlns:xlink="http://www.w3.org/1999/xlink" x="0px" y="0px"
	 viewBox="0 0 371 54" style="enable-background:new 0 0 371 54;" xml:space="preserve">
<style type="text/css">
	.st0{fill:#FFFFFF;}
	.st1{fill:#808184;}
</style>
<title>partner</title>
<g>
	<g>
		<path class="st0" d="M1.8,22.2c-0.8,1.3-2.7,3.2-1.1,4.1c1.3,0,2.2,0.3,2.2,1.3c0,1.1-1.3,1.2-1.4,1.9c-0.2,1,1.2,1.1,1.6,1.8
			c-0.1,0.7-1.2,0.9-1,1.9c0.4,0.4,0.8,0.3,1.1,0.6c1,0.9-0.5,2.1-0.6,3C2.2,38.4,4.8,40,6.8,40c4.5,0,9.8-2.7,14.5,0.1
			c-1.7,0.4-5.9-0.2-6,2.4c0,0.8,0.9,1.7,1.3,2.4c1.6,2.6,3,5.9,3.3,9.1c2.7-10,5.2-21.3,7.8-31.9c-5.1-2.2-8.8-5.6-14.9-7.4
			c-2.6-0.7-5.5-1-7.7-0.7c0,1.1-0.7,1.4-0.7,2.1c0,0.9,1.5,1.4,2.2,1.9c1,0.7,1.5,1.4,1.6,2.3c-0.7-0.3-0.6-1-1.7-1
			c-0.3,0-0.8,0.3-1.4,0.3c-0.4,0-1.2-0.7-1.4-0.6C3,19.3,2.2,21.6,1.8,22.2"/>
		<path class="st0" d="M8.9,4.2c-0.4,0.6-0.7,1.3-1.1,2c1.2,0.2,2.7,0.3,4,0.6C19.5,8.2,22.5,14,29,16.3c0.9-3.1,1.8-7.6,2.7-10.8
			C31.8,4.6,32,4,31.6,3.3c-0.9-0.8-2.7-0.5-3.5-1.3c-0.5-0.5-0.1-1-0.6-1.2c-1.8-0.6-3.7,0.5-4.8-0.9c-0.7,0.6-2.3,0.3-3.5,0.3
			c-0.8,0-1.5,1.1-2.1,0c-1.5,0.2-2.3,2-3.9,2c-0.3,0-0.7-0.3-1-0.3C11,2,10.7,4.1,9.6,4.5C9.1,4.5,9.3,4,8.9,4.2"/>
	</g>
	<path class="st1" d="M12.9,39.2c0,0,0.5-0.3,3.2-0.4c3.5-0.1,5.2,1.3,5.2,1.3c-0.2,0.1-0.8,0.2-2.2,0.2c-1.4,0.1-2.5,0.5-2.5,0.5
		c-1.8,0.7-1.3,2.3-1.3,2.3C13.9,41,12.9,39.2,12.9,39.2"/>
</g>
<path class="st0" d="M59.2,28.4h-8.7l6.1-5.6L59.2,28.4L59.2,28.4z M72.2,37.9L72.2,37.9L72.2,37.9L72.2,37.9L72.2,37.9z M72.7,37.7
	l-8.5-18.5c-1.7-3.5-3.5-3.7-5.8-3.7h-2.9c-0.3,0-2.2,0-2.2,0l0.6,1.2l-23,20.9c-0.3,0.3-0.5,0.7-0.6,1.1c0,0,0,0,0,0.1
	c0,0.2,0.1,0.4,0.2,0.6c0.1,0.2,0.4,0.3,0.6,0.3c0,0,0,0,0,0l6.6,0c0.3,0,0.5-0.1,0.7-0.3l5.4-4.9h18.1l2.2,4.7
	c0.1,0.3,0.4,0.5,0.8,0.5l6.7,0h0c0.5,0,0.8-0.3,1.1-0.7c0.1-0.3,0.2-0.5,0.2-0.8C72.8,38,72.8,37.9,72.7,37.7L72.7,37.7L72.7,37.7z
	"/>
<path class="st0" d="M75,38L75,38L75,38L75,38L75,38z M74.5,37.8c0,0.2-0.1,0.3,0,0.5c0,0.3,0.2,0.6,0.3,0.8
	c0.3,0.4,0.6,0.7,1.2,0.7h0l6.7,0c0.3,0,0.6-0.2,0.7-0.5l1.5-4.7l5.5-16.8l0.8-2.3c0,0-2,0-2.3,0h-3c-2.4,0-4.2,0.2-5.4,3.8
	L74.5,37.8L74.5,37.8L74.5,37.8z"/>
<path class="st0" d="M112.8,22.9c-0.1,0.2-0.2,0.4-0.4,0.6c-0.2,0.2-0.3,0.3-0.6,0.4c-0.2,0.1-0.5,0.3-0.8,0.4
	c-0.6,0.2-1.5,0.3-2.7,0.3h-8.2l1-3l8.5,0h0h0l0,0c0.8,0,1.4,0.1,1.8,0.2c0.7,0.2,1,0.4,1.2,0.6c0.1,0.1,0.1,0.2,0.2,0.3
	C112.8,22.6,112.8,22.7,112.8,22.9C112.8,22.8,112.8,22.8,112.8,22.9L112.8,22.9z M121.5,21c-0.1-0.7-0.3-1.3-0.7-1.9
	c-0.8-1.3-2-2.2-3.7-2.8c-1.6-0.6-3.7-0.9-6-0.9h0H101c0,0,0,0,0,0h0l-1.1,0h-5.2c-0.1,0-0.2,0-0.2,0l-0.2,0c-0.3,0-0.6,0.2-0.7,0.5
	L92,20.7l-5.5,16.8l-0.8,2.3c0,0,2,0,2.3,0h3c2.4,0,4.2-0.2,5.4-3.8l1.7-5.4h7.5h0c0.8,0,1.5,0.1,2,0.2c0.4,0.1,0.6,0.1,0.7,0.2
	c0.1,0.1,0.3,0.4,0.5,1.1l0,0l0.1,0.2c0,0,0.6,1.7,1.2,3.4c0.3,0.8,0.6,1.7,0.8,2.3c0.2,0.7,0.4,1.1,0.4,1.2
	c0.1,0.3,0.5,0.5,0.8,0.5c0,0,0,0,0,0h6.5c0.3,0,0.6-0.2,0.8-0.4c0.2-0.2,0.4-0.5,0.5-0.7l0-0.2l-2.3-6l-1.5-3.8
	c1-0.4,2.1-1.1,2.7-1.6c0.6-0.5,1.1-1.1,1.6-1.7c0.4-0.5,0.6-1.1,0.8-1.6h0l0.1-0.3h0l0.1-0.4c0.1-0.4,0.2-0.9,0.2-1.3
	C121.5,21.5,121.5,21.2,121.5,21L121.5,21z"/>
<path class="st0" d="M276.9,31.9L276.9,31.9L276.9,31.9c0-1.2-0.2-2.2-0.8-3.2c-0.5-0.9-1.2-1.7-2.2-2.3c-1-0.7-2.3-1.2-3.7-1.5
	c-1.4-0.3-3-0.5-4.8-0.5H259h0c-0.8,0-1.4-0.1-1.9-0.2c-0.7-0.2-1.1-0.4-1.4-0.6c-0.1-0.1-0.2-0.2-0.3-0.4c0-0.1-0.1-0.2-0.1-0.3
	c0.1-0.2,0.2-0.3,0.3-0.5c0.1-0.1,0.3-0.3,0.4-0.4c0.2-0.1,0.4-0.2,0.7-0.3c0.6-0.2,1.4-0.3,2.6-0.3l0,0h17.5c0.3,0,0.6-0.2,0.9-0.4
	c0.2-0.2,0.3-0.5,0.4-0.8l1.1-3.6c0-0.3,0-0.6-0.1-0.8c-0.1-0.2-0.4-0.4-0.8-0.4h-18c-1.8,0-3.4,0.1-4.9,0.5
	c-1.5,0.3-2.9,0.8-4.1,1.5l0,0c-1.1,0.6-2,1.4-2.8,2.3c-0.8,0.9-1.3,2-1.7,3.1l0,0c0,0.1,0,0.1,0,0.2c0,0.1,0,0.1,0,0.2v0
	c0,1.2,0.2,2.3,0.7,3.3c0.8,1.4,2.1,2.5,3.9,3.1c1.8,0.7,4,0.9,6.7,1h0l0,0h6.5l0,0c0.8,0,1.4,0.1,1.9,0.2c0.8,0.2,1.2,0.4,1.4,0.6
	c0.1,0.1,0.2,0.2,0.2,0.4c0,0.1,0.1,0.2,0.1,0.3c-0.1,0.2-0.2,0.3-0.3,0.5c-0.1,0.1-0.3,0.3-0.4,0.4c-0.2,0.1-0.4,0.2-0.7,0.3
	c-0.6,0.2-1.5,0.3-2.7,0.3h-19.6c-0.3,0-0.7,0.2-0.9,0.4c-0.2,0.2-0.3,0.5-0.4,0.8l-1.3,3.6c0,0.3,0,0.6,0.1,0.8
	c0.1,0.2,0.4,0.4,0.7,0.4h20.4c1.8,0,3.4-0.1,4.9-0.4c2.2-0.4,4.1-1.2,5.6-2.4c0.7-0.6,1.4-1.3,1.9-2c0.5-0.8,0.9-1.6,1.2-2.5l0,0
	c0-0.1,0-0.1,0-0.2C276.9,32.1,276.9,32,276.9,31.9L276.9,31.9z"/>
<path class="st0" d="M278.2,37.9L278.2,37.9L278.2,37.9L278.2,37.9L278.2,37.9z M277.7,37.7c-0.1,0.2-0.1,0.3,0,0.5
	c0.1,0.3,0.2,0.5,0.4,0.8c0.3,0.4,0.6,0.7,1.2,0.7h0l6.7,0c0.3,0,0.6-0.2,0.7-0.5l1.5-4.7l5.5-16.7l0.8-2.3c0,0-2,0-2.3,0h-3
	c-2.4,0-4.2,0.2-5.4,3.7L277.7,37.7L277.7,37.7L277.7,37.7z"/>
<path class="st0" d="M232.5,22.9c-0.1,0.2-0.2,0.4-0.4,0.5c-0.2,0.2-0.3,0.3-0.6,0.4c-0.2,0.1-0.5,0.3-0.8,0.4
	c-0.6,0.2-1.5,0.3-2.7,0.3h-8.2l1-3h8.5l0,0h0h0c0.7,0,1.4,0.1,1.8,0.2c0.7,0.2,1,0.4,1.2,0.6c0.1,0.1,0.1,0.2,0.1,0.3
	C232.5,22.6,232.5,22.7,232.5,22.9C232.5,22.8,232.5,22.8,232.5,22.9L232.5,22.9z M241.1,21c-0.1-0.7-0.3-1.3-0.7-1.9
	c-0.7-1.3-2-2.2-3.7-2.8c-1.7-0.6-3.7-0.8-6-0.8h0h-10.1c0,0,0,0,0,0h0l-1.1,0h-5.1c-0.1,0-0.2,0-0.2,0l-0.2,0
	c-0.3,0-0.6,0.2-0.7,0.5l-1.5,4.7l-5.5,16.7l-0.8,2.3c0,0,1.9,0,2.3,0h3c2.4,0,4.2-0.2,5.4-3.7l1.7-5.4h7.5h0c0.9,0,1.5,0.1,2,0.2
	c0.4,0.1,0.6,0.1,0.7,0.2c0.1,0.1,0.3,0.4,0.5,1.1l0,0l0.1,0.2c0,0,0.6,1.7,1.2,3.4c0.3,0.8,0.6,1.7,0.8,2.3c0.2,0.7,0.4,1,0.4,1.2
	c0.1,0.3,0.5,0.5,0.8,0.5c0,0,0,0,0,0h6.4c0.3,0,0.6-0.2,0.8-0.3c0.2-0.2,0.4-0.5,0.5-0.7l0.1-0.2l-2.3-6l-1.5-3.7
	c1-0.4,2.1-1.1,2.6-1.6c0.6-0.5,1.1-1.1,1.6-1.7c0.4-0.5,0.6-1.1,0.8-1.6h0l0.1-0.3h0l0.1-0.4c0.1-0.4,0.2-0.9,0.2-1.3
	C241.1,21.5,241.1,21.2,241.1,21L241.1,21z"/>
<path class="st0" d="M357.3,28.4h-8.7l6.2-5.6L357.3,28.4L357.3,28.4z M370.4,37.9L370.4,37.9L370.4,37.9L370.4,37.9L370.4,37.9z
	 M370.9,37.7l-8.6-18.5c-1.7-3.5-3.5-3.7-5.9-3.8h-2.9c-0.3,0-2.2,0-2.2,0l0.6,1.2l-23.1,20.9c-0.3,0.3-0.5,0.7-0.6,1.1
	c0,0,0,0,0,0.1c0,0.2,0,0.4,0.2,0.6c0.1,0.2,0.4,0.3,0.6,0.3c0,0,0,0,0,0l6.7,0c0.3,0,0.5-0.1,0.7-0.3l5.4-4.9h18.2l2.2,4.7
	c0.1,0.3,0.4,0.5,0.8,0.5l6.7,0h0c0.5,0,0.8-0.3,1.1-0.7c0.2-0.3,0.2-0.5,0.2-0.8C371,38,371,37.8,370.9,37.7L370.9,37.7L370.9,37.7
	z"/>
<path class="st0" d="M169.6,15.9c-0.1-0.2-0.4-0.4-0.7-0.4h-14.7h0c-4.1,0-7.7,0.5-10.9,1.4c-3.2,1-5.8,2.4-7.9,4.4
	c-1.8,1.7-3.1,3.8-3.7,6.1l0,0c0,0.1,0,0.1,0,0.2c0,0.1,0,0.1,0,0.2v0c-0.1,2.3,0.5,4.4,1.8,6.1c1.5,2,3.7,3.5,6.6,4.4
	c2.9,1,6.4,1.4,10.5,1.4h0h0l0,0h14.4c0.3,0,0.7-0.2,0.9-0.4c0.2-0.2,0.3-0.5,0.4-0.8l0.5-3.6c0-0.3,0-0.6-0.1-0.8
	c-0.1-0.2-0.4-0.4-0.7-0.4h-14.4c-2.8,0-5-0.3-6.7-0.9c-1.7-0.6-2.9-1.4-3.7-2.4c-0.6-0.8-0.9-1.7-0.9-2.8c0.4-1.1,0.9-2,1.7-2.8
	c1.1-1.1,2.5-1.9,4.4-2.4c1.9-0.6,4.1-0.9,6.9-0.9h14.7c0.3,0,0.6-0.2,0.9-0.4c0.2-0.2,0.3-0.5,0.4-0.8l0.1-0.5l0.4-3.1
	C169.7,16.4,169.7,16.1,169.6,15.9L169.6,15.9z"/>
<path class="st0" d="M198.9,27.6c-0.1,0.6-0.3,1.2-0.5,1.6c-0.3,0.5-0.6,0.9-1.1,1.4c-0.9,0.9-2.4,1.6-4.4,2.2l0,0
	c-1.6,0.5-3.5,0.8-5.9,0.9c-1.9-0.1-3.5-0.3-4.8-0.6c-1.4-0.3-2.4-0.8-3.3-1.3c-0.8-0.5-1.4-1.2-1.7-1.8c-0.3-0.7-0.4-1.4-0.2-2.3
	c0.1-0.6,0.3-1.2,0.5-1.6c0.3-0.5,0.6-0.9,1.1-1.4c0.9-0.8,2.3-1.6,4.3-2.2l0,0l0.1,0c1.6-0.5,3.6-0.8,5.9-0.9
	c2.2,0.1,4,0.4,5.6,0.9c1.8,0.6,3,1.4,3.7,2.2c0.3,0.4,0.6,0.9,0.7,1.4C199,26.5,199,27,198.9,27.6L198.9,27.6z M207.5,27.6
	L207.5,27.6c0.2-1.3,0.2-2.5-0.1-3.7l0,0c-0.3-1.1-0.8-2.2-1.5-3.1c-1.5-1.8-3.8-3.1-6.8-4.1l0,0l0,0c-2.6-0.8-5.6-1.2-9.1-1.4
	l-0.1,0h-0.1l-0.1,0c-3.6,0.1-6.8,0.6-9.6,1.4c-3.3,0.9-6,2.3-8,4.1c-1,0.9-1.8,1.9-2.5,3.1c-0.6,1.1-1,2.4-1.3,3.6c0,0,0,0,0,0l0,0
	l0,0c-0.2,1.3-0.2,2.5,0.1,3.6c0.3,1.1,0.8,2.2,1.5,3.1c1.4,1.8,3.7,3.1,6.8,4.1c2.6,0.8,5.7,1.3,9.2,1.4l0.1,0h0.1l0.1,0
	c3.6-0.1,6.8-0.6,9.6-1.4c3.3-0.9,6-2.3,8.1-4.1c1-0.9,1.8-1.9,2.5-3.1C206.9,30.1,207.3,28.9,207.5,27.6L207.5,27.6L207.5,27.6
	L207.5,27.6z"/>
<g>
	<path class="st0" d="M330.7,15.9c-0.1-0.2-0.4-0.4-0.7-0.4h-14.7h0c-4.1,0-7.7,0.5-10.9,1.4c-3.2,1-5.8,2.4-7.9,4.4
		c-1.8,1.7-3.1,3.8-3.7,6.1l0,0c0,0.1,0,0.1,0,0.2c0,0.1,0,0.1,0,0.2l0,0c-0.1,2.3,0.5,4.4,1.8,6.1c1.5,2,3.7,3.5,6.6,4.4
		c2.9,1,6.4,1.4,10.5,1.4h0h0l0,0h12.7c0.3,0,0.6-0.2,0.9-0.4c0.3-0.2,4.9-4.2,4.9-4.4c0.1-0.2,0-0.6-0.1-0.8
		c-0.1-0.2-0.4-0.4-0.7-0.4h-16.7c-2.8,0-5-0.3-6.7-0.9c-1.7-0.6-2.9-1.4-3.7-2.4c-0.6-0.8-0.9-1.7-0.9-2.8c0.4-1.1,0.9-2,1.7-2.8
		c1.1-1.1,2.5-1.9,4.4-2.4c1.9-0.6,4.1-0.9,6.9-0.9l14.7,0c0.3,0,0.6-0.2,0.9-0.4c0.2-0.2,0.3-0.5,0.4-0.8l0.1-0.5l0.4-3.1
		C330.9,16.4,330.8,16.1,330.7,15.9L330.7,15.9z"/>
</g>
</svg>
