<?xml version="1.0" encoding="utf-8"?>
<!-- Generator: Adobe Illustrator 22.0.1, SVG Export Plug-In . SVG Version: 6.00 Build 0)  -->
<svg version="1.1" id="Layer_1" xmlns="http://www.w3.org/2000/svg" xmlns:xlink="http://www.w3.org/1999/xlink" x="0px" y="0px"
	 viewBox="0 0 1027.2 322.1" style="enable-background:new 0 0 1027.2 322.1;" xml:space="preserve">
<style type="text/css">
	.st0{fill-rule:evenodd;clip-rule:evenodd;fill:#FFFFFF;}
	.st1{fill:#FFFFFF;}
</style>
<title>partner</title>
<g>
	<path class="st0" d="M471.7,100.8c12.1-7,23.5-15,34.5-23.7c-13.2-12.1-31.2-22.9-45.8-32.1c-0.6-0.4-0.9-0.7,0.1-0.2
		c15.3,7,34.2,13.4,48.8,23c0.3-16.1,1.2-31.8,1.5-41.8c0.1-4.4,0.8-6.6,1.8,0.2c2.4,14.3,4.3,29.5,5.3,43.9
		c14.8-5.7,30.5-9.8,46.4-11.1c1.6-0.1,1.9,1,0.2,1.6l-12,4.6l-27.5,11.4c-1.3,0.6-2.5,1.1-3.7,1.6c12.3,16.4,16,34.2,23.3,50
		c0.6,1.3,0.2,2.2-0.7,0.9c-10-14.5-19.5-32.4-31.4-45.6c-3.7,3.1-7.7,5.8-14.1,9.3c-8.2,4.5-17.1,6.8-26.1,9.1
		C466.8,103.4,467.3,103.4,471.7,100.8z"/>
	<path class="st0" d="M444.2,64.8c0.8-1.6,1.7-3.8,1.5-5.8c-0.2-1.5-1.3-3-2.9-3.2c-4.8-0.8-9,2.6-12.6,5.2
		c-12.5,9.1-24.9,18.6-37.5,27.6c-6.5,4.7-19.2,12.9-23.4,15.3c-1,0.3,1.2-1.9,1.9-2.6c2.7-3.2,5.5-6.5,8.3-9.6
		c5.1-6.1,9.7-11.7,14-18.3c1.4-2.2,2.9-4.6,1.5-7.4c-1.4-2.9-5-3.3-7.8-2c-12.7,5.6-34.3,27.9-49.2,44.4
		c-4.4,4.8-8.8,9.6-13.1,14.5c2.8-3.9,5.5-7.9,8.3-11.8c2.5-3.5,5.1-6.9,7.7-10.5c1.5-2.1,2.7-3.8,4.2-5.9c1.5-2.1,3.1-4.6,3.1-7.2
		c0-1.5-1-3.1-2-4c-1.7-1.6-4.3-1.6-7.1-0.5c-7.9,3-19.9,14.8-23.3,18c-7.5,7-14.6,14.7-21.8,22.1c-0.5,0.5-2,2.1-1.5,1.5
		c3.7-4.9,7.7-9.6,11.3-14.6c4.5-6.2,10.2-12.4,11.6-19.8c1-5.5-3-8.8-8-6.1c-10.4,5.5-25.4,26.5-33.5,37.9
		c-4.6,6.6-8.6,11.8-13.2,18.4c-0.2,0.2-0.4,0.5-0.6,0.7c3.9-8.8,7.3-16.3,11.2-25.2c2.7-6.2,5.6-12.4,8.1-18.7
		c1.4-3.4,3.5-9.8,0.7-13.3c-2.6-3.2-6.9-2.1-9.3,0.7c-1.2,1.5-2.3,3-3.2,4.7c-1.2,9.8-5.9,20.1-9.3,27.9c0.1-0.1,0.2-0.1,0.3-0.1
		c0,0,0,0,0,0c0,0,0.1,0,0.1,0c0,0,0,0,0,0c0,0,0,0,0.1,0.1c0,0,0,0.1,0.1,0.2c0.1,0.7-0.8,3.5-1.2,4.9c-2.8,8.3-6.9,18.1-19.7,18.4
		c-0.9,0-0.7,0.1-1.6,0c0.7,7.1,2.6,16.8,9.1,22.4c1.9,1.6,4,2.8,6.2,3.7c1.7-1,3.7-2.5,4.8-3.1c0.7,1.3,2.9,3,5,3.4
		c5.7,1.1,12.2-5.5,15.4-8.6c8.9-8.9,17.7-17.9,26.4-26.9c4.3-4.5,8.5-9,12.8-13.5c-5.2,7.7-10.5,15.3-15.5,23.2
		c-1.9,3-3.7,7.5-1.6,11c2.1,3.4,6.3,3.5,9.4,1.6c14-8.3,26.3-26.8,37.7-39.3c9.3-10.3,19.2-20.7,29-30.5c1.5-1.5,2.8-2.8,4.5-4
		c-1.8,2.2-3.7,4.5-5.4,6.7c-5,6.2-11.3,12.4-14.7,19.8c-0.8,1.8-1.1,4.3,0.3,6c2.6,3.1,7.1,1.5,10.1-0.3
		c9.1-5.4,18.4-11.8,27.3-18.1c6.6-4.7,12.9-9.8,19.3-14.8c2.5-1.9,4.9-3.9,7.3-5.9c3.3-2.7,6.6-5.4,10-8c1.3-1,2.7-1.9,4-2.9
		c1-0.6,2.4-1.7,3.6-1.7C436,74,425,85.4,422.1,99.7c-0.4,2.2-0.5,4.9,1.1,6.7c3.3,3.6,9.7,1.2,13.3-0.4c0.5-0.2,0.5-1.1-0.3-1
		c-3,0.4-6.9,2.2-9.9,0.6c-3.1-1.5-1-7.2-0.2-9.1C430.6,85.2,438.8,75.7,444.2,64.8z"/>
	<g>
		<g>
			<path class="st0" d="M353.9,202.6c-3.5,1.4-6.8,3-10,7.2c-13.4,17.6-3.2,48.2,20.3,47.7c9.9-0.3,18-5.2,25.1-11.9
				c5.9-5.7,10.8-11.8,15.2-18.7c-9.3-3.7-14.7-15.3-15.9-24.6c-1.4-10.5,0.5-22.2,6.5-31.1c4.2-6.2,11.8-13.6,19.8-13.9
				c4.2-0.1,7.7,2.2,9.8,5.7c4.4,7.4,3.8,19,2.4,26.4c-1.7,9.1-4.4,18.5-8.3,27.1c20.3-3.4,38.3-24.4,48.4-41.2
				c7.1-11.8,12.8-24.5,19.5-36.3c4.2-7.4,10.1-14.2,16.3-20c1.1-1,1.6-0.1,1,0.7c-5.1,6.5-9.6,13.8-13.4,21.1
				c-9.3,17.9-15.4,37.7-26.9,54.2c-10.5,15.1-31,34.8-50.6,33.3c-6.2,10.5-13.7,22.4-24,31.1c-7,6-14.8,9.8-24.2,10.5
				c-4.4,0.3-8.5-0.4-12.6-1.7c-13.3-4-21.3-18.3-22.7-31.3c-1-8.9,0.9-18.6,6-26.1c3.6-5.2,9.3-9.6,15.7-10.6
				c2.5-0.4,5.3-0.3,5.9,0.3C357.6,201,356.9,201.4,353.9,202.6L353.9,202.6z M410.3,216.2c4.2-9.2,6.8-18,8.1-27.8
				c0.5-4,1.2-13.3-1.6-18.8c-0.1-0.1-0.8-1.3-1.5-1.4c-0.3-0.1-0.6-0.1-0.9-0.1c-0.5,0.1-1.6,0.6-2.8,1.3
				c-5.5,3.6-9,10.2-10.4,16.6c-1.9,8.6-1,18.5,4.1,25.9C406.4,213.6,408.2,215.5,410.3,216.2z"/>
			<g>
				<path class="st1" d="M77.4,298.8c-0.3-0.8-0.4-1.5-0.4-2.3l0,0c0-3.1,0.8-6.3,1.6-7.9l0,0c0.1-0.3,0.3-0.6,0.6-1.1l0,0
					c0.5-1,1.3-2.4,2.2-4l0,0c1.8-3.3,4.2-7.8,6.7-12.4l0,0c5-9.2,10.1-18.8,11.3-20.6l0,0c10.8-17.9,17.9-29.1,18.2-35.1l0,0
					l0.1-1.1l1.1-0.2c0.2,0,0.3,0,0.3,0l0,0c1.7,0,3.2,0.8,3.9,2l0,0c0.8,1.2,1.1,2.7,1.1,4.1l0,0c0,1.4-0.3,2.8-0.7,4.1l0,0
					c-0.1,0.4-0.3,0.8-0.4,1.2l0,0c6.4-3.1,14.2-4.5,22.4-4.5l0,0c4.6,0,9.3,0.4,13.8,1.2l0,0l0,0c0.6,0.1,1.2,0.3,1.7,0.6l0,0
					c0.5,0.3,1,1,1,1.8l0,0c-0.1,1.3-1,1.9-1.9,2.3l0,0c-0.9,0.4-2.2,0.7-3.8,0.8l0,0c-21.1,1.5-27.2,5.4-42.3,24.1l0,0
					c-11.1,13.8-28,39.1-32.1,46.7c-0.2,0.3-0.5,0.9-0.5,0.9s0,0.1-0.1,0.1c-0.2,0.2-0.6,0.7-1.6,0.7l0,0c0,0-0.1,0-0.1,0l0,0
					C78.5,300.4,77.6,299.5,77.4,298.8L77.4,298.8z"/>
			</g>
			<path class="st1" d="M161.5,250.7c-15.4,10.1-24.5,30.8-15.6,50.8c8.1,18.2,32.2,21,48.4,14.4c8.3-3.4,14-8.3,18.1-14.9
				c1.3,7.7,4.9,14.5,12.9,19.2c6.1,3.6,7.5,1.8,3.3-2.9c-13.5-15.4-4.5-30.3-4.4-60.4c0-3-2-4.1-3.3-5
				C201.6,240.6,178.9,239.3,161.5,250.7z M193.6,305.9c-12.8,6.7-30.7,4.2-37-8.8c-6.9-14,0.9-30.2,11-37.4
				c10.8-7.9,28.8-10.6,46.7-1.1c0.3,0.1,0.5,0.4,0.5,0.8c-0.2,2.4-0.8,10.9-1.3,15.2C211.1,287.3,207.2,298.8,193.6,305.9z"/>
			<path class="st1" d="M322.1,270c-19.5-34-35.2-39-46-36.5c-14.2,3.2-15.2,30.1-15.7,32c-1.7-6.8-5-19-8.6-25.7
				c-3.2-5.8-8,1.7-6.4,7.9c6.6,26,8.5,38.2,14.6,55.8c2.3,6.9,4,11.1,5.2,10.8c2.2-0.6,1.7-5.8,2.1-12.7
				c0.5-8.7,0.1-54.2,12.9-57.2c12-2.8,27.6,19.4,34.6,29.6c13.3,19.1,22.6,20.1,30.4,15.8C337.3,290.1,328.6,281.4,322.1,270z"/>
			<path class="st1" d="M130.7,187.8c-1.9-9.2-14.8-16.9-31.4-17c-1.4,0-2.8,0-4.1,0.2c-13.9,1.4-24.8,9.1-35.5,21.6
				c-5.1-2.8-11.2-4.7-15.7-5.4c-0.5-0.1-1-0.1-1.6-0.1c-0.4,0-0.8,0-1.3,0.2c-0.5,0.1-1.3,0.8-1.2,1.7c0.1,1,0.5,1.4,1.1,2
				c3.8,3.7,7.2,7.3,11.4,11.2c-13.4,18.9-16.4,36.5-47.6,49.3c-1.4,0.6-5.1,2.2-4.5,3.8c1.1,2.4,7.6,0.5,7.6,0.5h0
				c21.5-3.2,39.8-23.8,55.2-44.9c4.8,3.5,9.6,6.7,14.3,10.1c0.6,0.4,1.2,0.7,2,0.7h0c0.5,0,1.1-0.2,1.5-0.6c0.4-0.4,0.6-1,0.6-1.5
				c0-0.6-0.2-1.2-0.5-1.7c-3.1-5.7-6.2-11.4-10.7-16.5c10.7-13.1,18.9-17.6,29-18.6c8.5-0.9,20.1-0.9,27.3,5c1.3,1,2.2,2.6,3.2,2.4
				C131.1,189.6,130.7,187.9,130.7,187.8z"/>
		</g>
		<g>
			<path class="st0" d="M221.6,3.8c-2.1-0.4-4.8-0.7-6.9-0.9c-9.2-0.7-18.4-0.2-27.4,2.7c-5.1,1.7-10,3.7-14.8,6.1
				c14.2-5.6,29.7-7.9,44.9-7c4,0.2,10.2,1.6,10.3,6.6c0.1,7.5-14.6,10.1-19.9,11.2c0.2,2.7-1.6,5.4-4.1,7c-0.7,0.4-1.4,0.8-2.1,1.2
				c-6.5,3.4-13.1,6.4-19.4,10.1c3-1.1,6-2.4,9-3.6c2.1-0.9,3.3-1.6,5.5-2.3c2.7-0.8,7.4-0.9,9,2.7c1.4,3.2,0.4,6.4-2.7,8.1
				c-2,1.1-3.4,1.5-5.4,2.5c-10.1,5.3-20.2,10.7-30.2,16.1c-10.6,5.7-21.3,11.2-31.4,17.6c-0.1,0.1-0.5,0.3-0.3,0.3
				c16.2-6.9,32.5-13.5,48.8-20.2c2.2-0.9,4.4-1.7,6.8-0.7c1.7,0.7,3,2.2,3,4.5c0,3.1-2.8,4.6-5.2,5.9c-1.7,0.8-3.4,1.6-5.1,2.5
				c-4.2,1.9-8.4,3.8-12.6,5.7c-6.2,2.8-12.4,5.4-18.5,8.3c-6.3,2.9-12.6,5.6-18.5,9.2c-3.8,2.3-8,5.1-10.5,8.9
				c3.4-0.3,7.6-1.1,11.4-2.2c5.6-1.6,11.1-3.5,16.6-5.2c4.6-1.5,9.2-3.4,13.8-4.7c1.1-0.3,2.2-0.6,3.3-0.5c3.3,0,5.8,3.3,3.8,6.4
				c-0.7,1.1-1.7,2-2.7,2.9c-3,2.6-6.1,4.3-9.7,6.4c-4.7,2.8-9.3,5.6-13.7,8.8c-2.6,2-5.8,4.5-7,7.8c-0.2,0.7-0.1,0.9,1,1
				c7.3,0.9,14.5-0.8,21.8-0.1c4.2,0.4,9,1.6,11,5.7c1.4,3,1,7.1,0.3,11c-1.1,6.3-2,11.5-1.4,18c0.2,2.8,0.7,5.5,1.3,8.2
				c0.7,2.6,1.5,5.1,2.3,7.7c0.4,1.3-0.7,1.7-1.2,0.4c-2-5.3-4.5-10.4-5.3-16c-1-7.5-0.1-15.2,0.4-22.8c0.5-8.2-6.1-7.7-12.4-7.5
				c-4.6,0.2-9.2,0.8-13.9,0.8c-2.4,0-6.4-0.2-8.1-2c-1.5-1.6-1.8-3.6-1.4-5.6c0.9-4.7,5.2-8.7,8.8-11.3c3.9-3,8.1-5.6,12.2-8.4
				c-4,1.3-8,2.7-12,4c-5.4,1.8-11.6,4.3-16.6,5.1c-4.5,0.7-10.4,1-12.1-3.8c-1.5-4,2-8.7,4.4-11.3c0.5-0.5,0.9-1,1.3-1.4
				c-3.2-0.5-6.1-2.4-6.5-5.9c-0.2-1.4,0.1-3,0.7-4.4c-7.4,0.5-10.5-6.5-6.8-12.6c1.6-2.6,4-4.7,6.2-6.6c-1.9-1.6-2.9-4.1-2.4-6.9
				c1.3-8,14.4-15.3,21.6-20.9c-0.4-6.1,8.5-13.8,12.9-17.3c7.3-5.8,15.1-11,23.6-14.9c14.5-6.6,29.8-9.9,45.6-7.3
				c2.1,0.4,4.6,1.1,6.6,1.8C224.7,3.9,225.4,4.4,221.6,3.8L221.6,3.8z M177,29c-6.6,1.5-14.9,5-21.5,8.6c-7.3,4-14.7,8.5-20.6,14
				c6.7-3.8,13.4-7.8,20.2-11.5C162.3,36.3,169.7,32.7,177,29L177,29z M166.9,22c12.8-4.1,26.4-5.6,39.7-8.1
				c1.9-0.4,3.7-0.7,5.6-1.1c-12.5-0.4-25.3,1.3-37,5.6C172.4,19.4,169.6,20.6,166.9,22z"/>
			<path class="st0" d="M194.5,121.8c13.3,4.7,26.5,9.6,40.7,11c5,0.5,9.8,0.1,13.6-3.6c3.3-3.2,5.9-7.5,8.5-11.4
				c0.8-1.2,1.1-1.2,1.2-0.7c0.1,0.7-0.8,3.5-1.2,4.9c-2.8,8.3-6.9,18.1-19.7,18.4c-0.9,0-0.7,0.1-1.6,0c0.7,7.1,2.6,16.8,9.1,22.4
				c5.7,4.8,13.1,6.2,20.5,6.9c10.4,1.2,16.4,0.6,28.7,2.3c14.6,2,37,5.5,48.5,14.9c2.5,2,1.7,4.4-1.6,3.2c-9-3.2-13.4-4.1-21.9-6
				c-21-4.7-49.5-1.5-65.5-6.5c-11.1-3.5-18.3-9.6-21-21.5c-1.1-5.5-1.1-10.6,0.7-15.9c-13.5-1.8-30.9-12.6-39.3-17.5
				C193.5,122.4,193.2,121.4,194.5,121.8z"/>
			<path class="st0" d="M229,99.3c1.3-0.1,3,0.1,5.4-0.6c3.8-1,9.3-4,14.7-3c5.4,1,6.7,4.9,6.4,6.8c-0.3,1.9-1,2.7-1.4,3.2
				c-0.5,0.6,0.4,3.1-0.7,4.7c-1.1,1.6-3.8,2.1-7.7,0.8c-3.9-1.4-9.7-5.1-13.4-6.6c-2.2-0.9-4.1-1.7-4.9-2.6c-0.6,0.6-1.4,1-2.2,1.1
				c-0.4,0.1-0.3,0-0.1-0.3c1.7-1.8,3.5-4.5,4.9-6.6c0.4-0.5,0.2,0,0.1,0.2C229.8,97.1,229.5,98.2,229,99.3L229,99.3z M238.8,102.4
				c3.6,0.7,9.8,2,11.2,2.5c1.3,0.4,0.8-1.4-2.9-2.2C243.5,101.9,242.2,102.2,238.8,102.4z"/>
			<g>
				<path class="st1" d="M209.8,46.5c0.3-0.2,0.6-0.4,1-0.6c2-1.3,4-2.6,6.3-3.2c2.7-0.8,5.4-0.9,8-0.6c2.6,0.4,5.2,1.3,7.5,2.8
					c2,1.2,3.5,2.9,5.1,4.6c0.2,0.2,1.8,2.1,0.4,1.5c-2.7-1.3-5.3-2.6-8.1-3.5c-2.8-1-5.7-1.7-8.9-1.8c-3.1-0.1-6.1,0.3-9.2,0.9
					c-0.7,0.1-1.4,0.2-2,0.3C208.9,47,208.9,47,209.8,46.5z"/>
				<path class="st1" d="M231.8,64c-0.6-0.2-2-0.6-3.4-0.8c-1.4-0.3-2.9-0.6-3.9-1.1c-0.6-0.9-0.7-1.8-0.6-2.7
					c0-0.5,0.1-1.3,0.2-1.8c-2.5-0.8-6.8,0.8-8.4,1.5c-0.4,0.2-0.4,0.1-0.3-0.3c1.4-2.2,4.2-3.3,6.7-3.6c2.5-0.3,5.1,0,6.8,1
					c1.6,1,2.7,2.7,3,3.9C232.2,61.5,232.1,62.8,231.8,64z"/>
				<path class="st0" d="M261.8,74.6c-0.9-0.9-2.6-1.6-4.1-2.1c2.3,2.8,4.2,5.8,3.3,9.5c-0.6,2.4-2.4,3.6-4.1,4.9
					c-1.3,0.9-2.6,1.9-3.4,3.3c-0.3,0.5-0.7,0.4-0.7-0.3c0-1.7,1.4-3.1,2.8-4.5c1.1-1.1,2.1-2.1,2.5-3.3c1.1-3.1-1.7-5.7-3.9-7.7
					c-0.5-0.5-1-0.9-1.4-1.4c-1.6-1.7-3.4-3.9-4.3-6.3c-0.9-2.4-1-4.9,0.7-7.3c1.6-2.1,4.1-3.3,6.8-3.7c2.3-0.3,4.8-0.1,7,0.6
					c1.6,0.5,3.1,1.2,3.9,2.8c0.2,0.5,0.2,0.6-0.3,0.4c-2.4-1-5.4-1.7-8.1-1.4c-2.3,0.3-4.5,1.1-6.1,3c-0.6,0.7-0.8,1.4-0.8,2.3
					c0,1,0.4,2.1,0.9,2.9c0.2,0.4,0.5,0.8,0.8,1.1l0,0c0.4-0.1,1-0.3,1.6-0.4c0.6-0.2,1.3-0.3,1.8-0.3c1.4,0,2.6,0.2,3.7,0.6
					c0.9,0.4,1.7,1.1,2.1,2c0.4,0.8,0.5,1.8,0.4,2.7C262.8,72.9,262.3,73.9,261.8,74.6z M254.1,68.4c0.3,0.4,1.1,1.2,1.5,1.6
					c0-0.5,0.1-1.1,0.3-1.6C255.4,68.3,254.6,68.3,254.1,68.4z"/>
			</g>
		</g>
	</g>
	<path class="st1" d="M581.6,224.5h-5.3c-5.8,0-10.1,3-11.6,10.4l-2.8,14.1H577l-1.6,7.8h-15.1l-12.9,64.5H537l12.9-64.5h-8.7
		l1.5-7.8h8.7l3-14.6c3-14.8,12.6-18.6,21.1-18.6h7.8L581.6,224.5z"/>
	<path class="st1" d="M626.8,261.8c-1.9-2.5-5-5.2-10.4-5.2c-10.4,0-18.9,8.7-21.2,20l-8.9,44.7h-10.4l14.5-72.9h10.2l-1.8,8.9
		c4.4-6.1,11.7-9.8,20.4-9.8c7,0,12,2.4,15.8,6.8L626.8,261.8z"/>
	<path class="st1" d="M690.6,272.1l-9.8,49.1h-10.2l1.6-7.3c-5.5,5.5-11.7,8.1-20.9,8.1c-11.5,0-21.9-4.7-21.9-17.8
		c0-6.1,1.8-12.4,6.5-17c5.9-5.8,13.2-7.7,21.4-7.7h21.3l1.6-7.7c0.3-1.3,0.6-3.1,0.6-4.9c0-7.1-5.6-10.8-14.6-10.8
		c-9,0-14.3,2.8-19.7,8.7l-6.1-7.1c6.5-7.1,14.1-10.5,26.3-10.5c10.4,0,24.4,3.3,24.4,18.9C691.3,267.8,690.9,270.4,690.6,272.1z
		 M658.5,287.4c-11.1,0-18.8,5.8-18.8,16.4c0,6.2,4.3,9.6,14.5,9.6c6.4,0,11.7-1.9,15.5-5.8c3-2.8,5-7,5.9-11.8l1.6-8.4H658.5z"/>
	<path class="st1" d="M764.7,275.2l-9.3,46H745l9-45c0.4-2.4,0.7-4.9,0.7-6.8c0-8.7-5.6-12.9-13.2-12.9c-5,0-18.1,2.4-21.6,20
		l-8.9,44.7h-10.4l14.5-72.9h10.2l-1.6,8.1c4.9-5.6,12-9,21.6-9c11.1,0,20,7.2,20,20.6C765.4,270.8,765.1,272.9,764.7,275.2z"/>
	<path class="st1" d="M828.7,264.7c-3.9-5.8-7.8-8.1-14.4-8.1c-5.6,0-11.2,2.1-16.1,7.1c-5.3,5.6-8.1,13.8-9.5,21
		c-0.7,3.9-1.2,7.1-1.2,10.9c0,12.3,7.7,17.3,15.8,17.3c6.9,0,12-2.5,17.6-8.4l6.1,7.4c-6.9,6.9-15.4,10.2-24.3,10.2
		c-17.2,0-25.6-11.5-25.6-26.2c0-3,0.3-7.4,1-11.2c4.4-24.3,18.3-37.3,37.1-37.3c10.2,0,16.3,4.1,21,10.8L828.7,264.7z"/>
	<path class="st1" d="M898.7,287.4h-46.9c-0.6,3.1-0.9,5.9-0.9,9.2c0,9.6,4.7,16.6,15.7,16.6c8.6,0,14.2-3,20.4-8.6l6.2,7
		c-7.7,7.2-16.4,10.6-27.5,10.6c-14.3,0-24.9-8.3-24.9-25.1c0-21.9,10.1-49.6,36-49.6c15.5,0,23.7,11.1,23.7,25
		C900.5,276.1,899.9,281.8,898.7,287.4z M876.4,256.2c-10.7,0-18.9,7.4-23.2,23.7h36.7c0.3-2.4,0.6-4.4,0.6-7.4
		C890.4,261.2,883.9,256.2,876.4,256.2z"/>
	<path class="st1" d="M917.8,321.3h-13.5l2.8-14.1h13.3L917.8,321.3z"/>
	<path class="st1" d="M973.5,225.4h-5.3c-5.8,0-10.1,3-11.5,10.4l-2.8,14.1H969l-1.6,7.8h-15.1l-12.9,64.5H929l12.9-64.5h-8.7
		l1.5-7.8h8.7l3-14.6c3-14.8,12.6-18.6,21.1-18.6h7.8L973.5,225.4z"/>
	<path class="st1" d="M1018.8,262.7c-1.9-2.5-5-5.2-10.4-5.2c-10.4,0-18.9,8.7-21.2,20l-8.9,44.7h-10.4l14.5-72.9h10.2l-1.8,8.9
		c4.4-6.1,11.7-9.8,20.4-9.8c7,0,12,2.4,15.8,6.8L1018.8,262.7z"/>
</g>
</svg>
