<?xml version="1.0" encoding="utf-8"?>
<!-- Generator: Adobe Illustrator 22.0.1, SVG Export Plug-In . SVG Version: 6.00 Build 0)  -->
<svg version="1.1" id="Layer_1" xmlns="http://www.w3.org/2000/svg" xmlns:xlink="http://www.w3.org/1999/xlink" x="0px" y="0px"
	 viewBox="0 0 800.9 112.6" style="enable-background:new 0 0 800.9 112.6;" xml:space="preserve">
<style type="text/css">
	.st0{fill:#2B4A99;}
	.st1{fill:#0084AD;}
	.st2{fill:#FFFFFF;}
</style>
<title>partner</title>
<g>
	<path class="st0" d="M384.8,48C384.8,48,384.8,48,384.8,48C384.8,48,384.8,48,384.8,48c0-0.1,0-0.1,0-0.1c0,0,0,0-0.1,0
		C384.7,47.9,384.7,47.9,384.8,48L384.8,48z"/>
	<path class="st1" d="M275.6,42.9c-0.7,1.9-2.1,5.2-5,8.6c-4.1,4.7-10.5,8.9-19.9,8.9C235.6,60.4,224,49.2,224,30
		c0-19.5,12.6-30,27.3-30c17.9,0,22.1,13.8,23.4,17.7l-10.7,2.8c-0.2-1.1-0.7-3.5-2.1-5.7c-1.2-1.8-4.4-5-10.3-5
		c-9.4,0-15.9,7.7-15.9,20c0,13.1,6.9,20.3,15.9,20.3c5.4,0,8.6-2.6,11-5.6c1.9-2.5,2.6-4.6,3-5.9L275.6,42.9z"/>
	<path class="st1" d="M312,60.4c-7.2,0-13.9-2-19.8-8.8c-5.7-6.6-7.6-14.1-7.6-21.3c0-17.6,11.9-30.3,27.6-30.3
		c14.2,0,27.6,10.6,27.5,30.2C339.6,46.6,329.7,60.4,312,60.4"/>
	<path class="st1" d="M362.7,10.7v18h3.7c3.7,0,5-0.1,7.1-0.2c2.4-0.1,10.1-0.5,10.1-8.9c0-1.2-0.1-5.4-4.6-7.7
		c-2.3-1.1-5-1.2-11.4-1.2H362.7z M352,1.5h18.3c7.6,0.1,12.8,0.1,17.8,4.2c3.6,2.9,6.3,7.5,6.3,14.2c0,11-8.1,14.8-11.3,15.8
		L396,58.9h-12.3l-11.4-21.3h-9.6v21.3H352V1.5z"/>
	<path class="st1" d="M412.7,41.8c1.4,2.1,5.7,8.7,17.8,8.7c2,0,4.2-0.2,6.2-1c4.2-1.7,4.9-4.6,4.9-6.6c0-3.7-2.5-5-4.3-5.7
		c-1.3-0.5-1.5-0.6-6.7-1.8l-6.9-1.5c-3.7-0.9-5.5-1.3-7.2-2c-2.6-1.1-9.7-4.6-9.7-14.1C406.7,7,415.9,0,429.4,0
		c12.4,0,19,6.1,23.1,11.6l-8.8,6.6c-2-2.8-5.7-8.5-14.9-8.5c-5.8,0-10.8,2.6-10.8,7c0,4.9,5.4,5.9,10.6,6.8l5.9,1.3
		c7.7,1.6,18.6,4.8,18.6,17.1c0,13.2-12.2,18.5-24.4,18.5c-3.2,0-6.8-0.3-10.3-1.3c-3.8-1.1-10.6-3.9-14.9-10.9L412.7,41.8z"/>
</g>
<rect x="468" y="1.5" class="st1" width="10.6" height="57.4"/>
<g>
	<path class="st1" d="M542,42.9c-0.7,1.9-2.1,5.2-5,8.6c-4.1,4.7-10.5,8.9-19.9,8.9c-15.2,0-26.8-11.1-26.8-30.3
		c0-19.5,12.6-30,27.3-30c17.9,0,22.1,13.8,23.4,17.7l-10.7,2.8c-0.2-1.1-0.7-3.5-2.1-5.7c-1.2-1.8-4.4-5-10.3-5
		c-9.4,0-15.9,7.7-15.9,20c0,13.1,6.9,20.3,15.9,20.3c5.4,0,8.6-2.6,11-5.6c1.9-2.5,2.6-4.6,3-5.9L542,42.9z"/>
</g>
<path class="st1" d="M563.6,1.5l-19.4,57.4h11.5l3.3-11.2h21.6l3.3,11.2h11.5L575.8,1.5H563.6z M569.9,11.9l7.9,26.4h-15.9
	L569.9,11.9z"/>
<rect x="601.3" y="47.8" class="st1" width="10.7" height="11.1"/>
<g>
	<path class="st1" d="M671.8,42.9c-0.7,1.9-2.1,5.2-5,8.6c-4.1,4.7-10.5,8.9-19.9,8.9c-15.2,0-26.8-11.1-26.8-30.3
		c0-19.5,12.6-30,27.3-30c17.9,0,22.1,13.7,23.4,17.7l-10.7,2.8c-0.2-1.1-0.7-3.5-2.1-5.7c-1.2-1.8-4.4-5-10.3-5
		c-9.4,0-15.9,7.7-15.9,20c0,13.1,6.9,20.3,15.9,20.3c5.4,0,8.6-2.6,11-5.6c1.9-2.5,2.6-4.6,3-5.9L671.8,42.9z"/>
	<path class="st1" d="M708,60.4c-7.2,0-13.9-2-19.8-8.8c-5.7-6.6-7.6-14.1-7.6-21.3c0-17.6,11.9-30.3,27.6-30.3
		c14.2,0,27.6,10.6,27.5,30.2C735.6,46.7,725.6,60.4,708,60.4 M708.1,9.9c-9.8,0-16.4,8-16.4,19.9c0,12.9,7.2,20.7,16.7,20.7
		c7.2,0,16.4-5.2,16.6-19C725.1,20.2,719.4,9.9,708.1,9.9"/>
</g>
<polygon class="st1" points="785.3,1.5 774.3,44.2 763.1,1.5 747.4,1.5 747.4,59 757.9,59 756.9,11.8 769.3,59 779,59 791.4,11.8 
	790.4,59 800.9,59 800.9,1.5 "/>
<polygon class="st2" points="36.7,1.5 24.2,46.9 11.3,1.5 0,1.5 17,59 31.5,59 47.9,1.5 "/>
<rect x="57.2" y="1.5" class="st2" width="10.6" height="57.6"/>
<g>
	<path class="st2" d="M86.9,41.9c1.4,2.1,5.7,8.7,17.9,8.7c2,0,4.2-0.2,6.2-1c4.2-1.7,4.9-4.6,4.9-6.6c0-3.7-2.5-5-4.3-5.7
		c-1.3-0.5-1.5-0.6-6.7-1.8l-6.9-1.5c-3.7-0.9-5.5-1.3-7.3-2c-2.6-1.1-9.7-4.6-9.7-14.1C80.9,7,90.1,0,103.7,0
		c12.4,0,19.1,6.1,23.2,11.7l-8.8,6.6c-2-2.9-5.7-8.6-14.9-8.6c-5.8,0-10.8,2.6-10.8,7c0,4.9,5.4,5.9,10.6,6.9l6,1.3
		c7.7,1.6,18.7,4.8,18.7,17.1c0,13.2-12.2,18.5-24.5,18.5c-3.2,0-6.8-0.3-10.3-1.3c-3.8-1.1-10.6-3.9-14.9-10.9L86.9,41.9z"/>
</g>
<rect x="142.3" y="1.5" class="st2" width="10.6" height="57.6"/>
<polygon class="st2" points="163.5,1.5 163.5,11.3 179.1,11.3 179.1,59 189.9,59 189.9,11.3 205.8,11.3 205.8,1.5 "/>
<g>
	<path class="st2" d="M376.3,82.3h-3L364,108l-9-25.7h-3.1l10.8,29.5h2.5L376.3,82.3z M404.5,96.8c0-6.7-2.8-15.3-12.6-15.3
		c-8.8,0-12.8,7.3-12.8,15.5c0,5.2,1.6,9.1,3.7,11.5c2.4,2.9,5.4,4,9.1,4c2.4,0,6-0.5,8.9-3.8C403.1,105.9,404.5,101.3,404.5,96.8
		 M401.5,96.9c0,2.4-0.6,13.2-9.7,13.2c-7.5,0-9.7-7.5-9.7-13c0-5.6,2.3-13.1,9.8-13.1C399.4,84,401.5,91.5,401.5,96.9 M411.9,82.3
		V96c0,6.4,0,8.1,0.7,10.2c1.4,4.3,5.5,6.4,10.5,6.4c3.1,0,6.3-0.8,8.4-3.1c2.5-2.7,2.5-5.5,2.5-13.7V82.3h-2.8v18.3
		c0,1.1,0,2.8-0.3,3.8c-0.6,2.6-1.8,4-4.1,4.9c-1.4,0.5-2.8,0.6-3.8,0.6c-3.7,0-5.9-1.5-6.9-2.8c-1.4-1.8-1.4-4.1-1.4-7.3V82.3
		H411.9z M461.8,88c-0.7-1.6-2.6-6.5-10.2-6.5c-4.6,0-9.7,1.9-9.7,7.7c0,5.5,4.7,7,8.9,8.1c3.9,1,5.6,1.4,6.9,2.6
		c0.8,0.6,1.8,1.8,1.8,4c0,3.1-2.5,6.3-8.2,6.3c-3.1,0-6.1-1-7.4-3.8c-0.5-1-0.7-2.3-0.7-3.4l-2.8,1.5c0.5,2.7,1.8,4.9,4,6.4
		c1.5,1,3.8,1.8,6.9,1.8c7.6,0,11-4.7,11-8.8c0-5.6-5.2-7.3-6.8-7.8c-0.9-0.3-5.1-1.4-6-1.7c-1.7-0.5-5-1.5-5-5.1
		c0-3.9,3.8-5.3,6.9-5.3c2.6,0,4.9,0.9,6.4,3c0.7,0.9,1,1.9,1.3,2.6L461.8,88z M491.1,99.6l11.5-17.3h-3.4L489.8,97l-9.1-14.7h-3.3
		l11,17.3v12.2h2.7V99.6z M540.3,109.2h-17.5V98h14.9v-2.6h-14.9V84.9h16.5v-2.6h-19.3v29.5h20.3V109.2z M530.2,74.4h-1.8l-4.4,5.1
		h2l3.2-2.3l3.3,2.3h2L530.2,74.4z M555.6,84.7h9.3v-2.5h-21.4v2.5h9.3v27.1h2.8V84.7z M590.3,109.2h-17.5V98h14.9v-2.6h-14.9V84.9
		h16.5v-2.6H570v29.5h20.3V109.2z M616.3,88c-0.7-1.6-2.6-6.5-10.2-6.5c-4.6,0-9.7,1.9-9.7,7.7c0,5.5,4.7,7,8.9,8.1
		c3.9,1,5.6,1.4,6.9,2.6c0.8,0.6,1.8,1.8,1.8,4c0,3.1-2.5,6.3-8.2,6.3c-3.1,0-6.1-1-7.4-3.8c-0.5-1-0.7-2.3-0.7-3.4l-2.8,1.5
		c0.5,2.7,1.8,4.9,4,6.4c1.5,1,3.8,1.8,6.9,1.8c7.6,0,11-4.7,11-8.8c0-5.6-5.2-7.3-6.8-7.8c-0.9-0.3-5.1-1.4-6-1.7
		c-1.7-0.5-5-1.5-5-5.1c0-3.9,3.8-5.3,6.9-5.3c2.6,0,4.9,0.9,6.4,3c0.7,0.9,1,1.9,1.3,2.6L616.3,88z M642.6,111.8
		c5,0,7.7,0,10.3-2.1c3.3-2.6,5.3-7.2,5.3-12.7c0-6.9-3.2-12.1-7.4-13.8c-2.1-0.8-4.9-0.8-8-0.9h-7.9v29.5H642.6z M637.8,84.9h5.1
		c3.6,0,5.2,0,6.9,0.7c3.6,1.6,5.6,6.4,5.6,11.5c0,5.9-2.6,10-5.4,11.3c-2,0.9-5.4,0.9-7.8,0.9h-4.4V84.9z M685.1,109.2h-17.5V98
		h14.9v-2.6h-14.9V84.9H684v-2.6h-19.3v29.5h20.3V109.2z M677.1,74.4l-4.1,5.2h2.4l6.1-5.2H677.1z M702.4,82.3v15.9
		c0,2.4,0,3.3,0,4.8c0,3-0.1,7.1-5.2,7.1c-4.6,0-6.1-2.3-6.1-5.7c0-0.4,0-0.8,0.1-1.3l-3,0.7c0.1,2.3,0.2,4.6,2.2,6.5
		c2.1,2.2,5.2,2.3,6.6,2.3c1.4,0,6.3,0,7.7-5.1c0.5-1.7,0.5-5.7,0.5-7.8V82.3H702.4z M724.4,82.3h-2.3l-12,29.5h3.1l3.3-8.9h13.2
		l3.4,8.9h3.1L724.4,82.3z M717.4,100.6l5.8-15.1l5.7,15.1H717.4z M722.5,79.6h2.4l-4.1-5.2h-4.4L722.5,79.6z"/>
</g>
<rect x="200.1" y="26.6" class="st2" width="15.7" height="9.8"/>
<g>
	<path class="st2" d="M330,16.1c0,0-0.6-0.3-0.8,0.2c0,0-0.1,0.8-0.3,1c0,0-0.2,0.3-0.8,0.1c0,0-0.3,0-0.4,0.1c0,0-0.3,0.1-0.2-0.3
		c0,0,0.1-0.6,0.1-0.8c0,0-0.1-0.6-0.8-0.7c0,0-0.8-0.1-0.6-0.4c0,0,0.6-1.2,0.3-1.7c0,0-0.2-0.7-1.1-0.7c0,0-1.1,0.3-1.1,0.4
		c0,0-0.5,0.2-0.2,0.9c0,0,0.2,0.7,0.2,0.9c0,0,0.1,0.2-0.7,0.4c0,0-0.9,0.3-1.2,0.8c0,0-0.5,0.7-0.2,1.4c0,0,0.9,1.4,1.1,3.9
		l0.3,2.4c0,0,0.3,1.8,0.2,2c0,0,0,0.7-0.8,1.2c0,0-0.8,0.7-1.4,0.8c0,0-0.2,0-0.3,0.1c-0.1,0-0.3-0.1-0.3-0.1c0,0-0.1,0-0.1-0.1
		c-0.1-0.1-0.3-0.1-0.3-0.1c-0.1,0-0.2-0.2-0.3-0.2c0-0.3,0.2-0.4,0.2-0.4c0.5-0.2,0-0.6,0-0.6c-0.2-0.1-0.2-0.2-0.2-0.2
		c0-0.1,0.8-0.1,0.8-0.1c0.8,0,0-0.7,0-0.7c-0.1-0.4,0.3-0.5,0.3-0.5c0.3,0,0.7-0.2,0.7-0.2c0.5-0.3,0-0.5,0-0.5
		c-0.2,0-0.3-0.1-0.3-0.1c0-0.1-0.4-0.2-0.4-0.2c-0.2-0.5,0.4-0.4,0.4-0.4c0.2,0.1,0.5,0,0.5,0c0.4-0.1-0.1-0.6-0.1-0.6
		c-0.3-0.2-0.3-0.4-0.3-0.4c0.1-0.2-0.1-0.4-0.1-0.4c-0.1-0.1-0.1-0.3-0.1-0.3c0-0.1-0.4-0.6-0.4-0.6c-0.4-0.5,0.2-0.4,0.2-0.4
		c0.2,0.1,0.2-0.1,0.2-0.1c0-0.3-0.3-0.5-0.3-0.5c-0.2-0.1-0.5-0.6-0.5-0.6c-0.1-0.1,0.5-0.3,0.5-0.3c0.5-0.3-0.4-0.6-0.4-0.6
		c-0.3,0-0.7-0.4-0.7-0.4c-0.3-0.2-0.6-1.2-0.6-1.2c-0.2-0.7-0.8-0.9-0.8-0.9c-0.4,0-0.4-0.3-0.4-0.3c0-0.1,0.4-0.4,0.4-0.4
		c0.4-0.6-0.3-0.4-0.3-0.4c-0.2,0.1-0.9,0.3-0.9,0.3c-0.2,0.1-0.5-0.3-0.5-0.3c-0.3-0.1-0.5-0.1-0.5-0.1c-0.6-0.6-0.9-0.6-0.9-0.6
		c-0.1,0.1-0.3,0.1-0.3,0.1c-0.1-0.1-0.9-0.1-0.9-0.1c-0.7,0-0.2-0.2-0.2-0.2c0.5,0,0.1-0.3,0.1-0.3c-0.5-0.3-1.1-0.5-1.1-0.5
		c-0.2-0.1-1,0.2-1,0.2c-0.4,0.1-0.2-0.3-0.2-0.3c0-0.3-0.3-0.2-0.3-0.2c-0.2,0.2-0.3,0.1-0.3,0.1c-0.1,0-0.1-0.1-0.1-0.2
		c0,0-0.4,0.1-0.4,0.1c-0.3,0.1-0.6-0.1-0.6-0.1c-0.1-0.2-0.2-0.2-0.2-0.2c-0.2,0.1-0.3,0.1-0.3,0.1c-0.2,0-0.6,0.1-0.6,0.1
		c-0.3,0.1-0.3-0.4-0.3-0.4c-0.1-0.1-0.5-0.2-0.5-0.2c-0.4-0.2-0.9,0.3-0.9,0.3c-0.3,0.1-0.6,0.5-0.6,0.5c-0.6,0.2-0.3-0.2-0.3-0.2
		c0.2-0.1,0.1-0.4,0.1-0.4c-0.1,0.1-0.2,0-0.2,0c-0.1-0.2-0.3,0.1-0.3,0.1c0,0.1-0.2,0.1-0.2,0.1c0-0.1-0.3,0-0.3,0
		c-0.4-0.1-0.9,0.2-0.9,0.2c-0.4,0.3-0.7,0.6-0.7,0.6c-0.4,0.3-0.4,0.1-0.4,0.1c-0.1-0.2-0.4,0-0.4,0c-0.2,0.2-0.3,0-0.3,0
		c0-0.2-0.1-0.3-0.1-0.3c-0.4,0-0.3,0.3-0.3,0.3c0.1,0.1-0.2,0.4-0.2,0.4c-0.1,0-0.3,0-0.3,0c-0.2,0.1-0.4,0.2-0.4,0.2
		c-0.3,0-0.8,0.2-0.8,0.2c-0.3,0.1-0.6,0.4-0.6,0.4c-0.2,0.3-0.2-0.1-0.2-0.1c0-0.1,0-0.1,0-0.1c-0.2,0.1-0.2,0.3-0.2,0.3
		c-0.1,0-0.2,0.2-0.2,0.2c-0.2,0.2-0.1,0.7-0.1,0.7c0.1,0.5-0.3,0.7-0.3,0.7c-0.5,0.3-0.5,0.6-0.5,0.6c0,0.2-0.2,0.3-0.2,0.3
		c-0.2,0.2-0.1,0.4-0.1,0.4c0.1,0.3-0.4,0.6-0.4,0.6c-0.2,0.1-0.7,0.5-0.7,0.5c-0.4,0.4,0,0.8,0,0.8c0.2,0.2,0.4,0.5,0.4,0.5
		c0.1,0.2-0.4,0.4-0.4,0.4c-0.3,0.2-0.3,0.6-0.3,0.6c0.2,0.4-0.3,0.8-0.3,0.8c-0.2,0.4,0.2,0.9,0.2,0.9c0.2,0.2,0,0.6,0,0.6
		c0.1,0.3,0.4,0.6,0.4,0.6c0.1,0.2-0.4,1.3-0.4,1.3c-0.2,0.4,0.2,1.2,0.2,1.2c0.1,0.5-0.1,0.8-0.1,0.8c-0.1,0.3-0.7,1.5-0.7,1.5
		c-0.1,0.2-0.8,1.5-0.8,1.5s0.2-0.4,0,0.1c-0.2,0.4-0.6,0.8-0.6,0.8c-0.2,0.4-0.3,0.8-0.3,0.8c-0.1,0.6,0.3,1.1,0.3,1.1
		c0.3,0.5,1,0.5,1,0.5c0.5-0.2,0.6-0.1,0.6-0.1c0.4,0.3,0.2,0.9,0.2,0.9c0.1,0.2-0.7,1-0.7,1c-0.2,0.3-0.1,0.5-0.1,0.5
		c0.1,0.3,0.5,0.6,0.5,0.6c0.4,0.3,0.2,0.5,0.2,0.5c-0.1,0.1-0.4,0.5-0.4,0.5c-0.1,0.5,0.4,0.5,0.4,0.5c1.1,0.4,1.1,0.9,1.1,0.9
		c0.1,0.3-0.1,0.8-0.1,0.8c-0.2,1.2,0.2,1.7,0.2,1.7c0.4,0.8,1.2,0.8,1.2,0.8c0.4,0.2,3-0.1,3-0.1c0.9-0.2,1.7,0.2,1.7,0.2
		c0.3,0.2,0.8,0.9,0.8,0.9c0.3,0.5,0.3,0.7,0.3,0.7c0.5,0.7,0.9,0.8,0.9,0.8c0.4,0.2,0.7,0.3,0.7,0.3l0,0.1c1.7,1.7,2,2.4,2,2.4
		c0.2,0.9,0.4,1.4,0.4,1.4c0.2,0.8,0.4,0.6,0.4,0.6c2-0.1,1.9-0.2,1.9-0.2c2.6-1.2,3.4-2.4,3.4-2.4c1.4-1.4,2.1-2.6,2.1-2.6
		c0.1-0.2,2.2-2.3,2.2-2.3c0.8-0.7,2.2-1.3,2.2-1.3s0.3-0.4,0-0.6c0,0-1.7-1.5-2-2.2c0,0-0.7-0.9-0.8-1.7c0,0-0.5-1.3-0.3-1.6
		c0,0,0.2-0.1,0.3,0c0,0,0.4-0.3,0-0.6c0,0-0.2-0.2-0.2-0.4c0,0,0-0.1,0.4-0.1c0,0,0.5-0.1,0.4-0.4c0,0,0.1-0.2-0.4-0.2
		c0,0-0.6-0.2-0.1-0.7c0,0,0.4-0.1,0.7-0.1c0,0,0.1,0,0.1-0.2c0,0,0.2-0.1,0.2-0.3c0,0-0.2-0.3-0.2-0.5c0,0,0-0.1-0.1-0.2
		c0,0-0.1-0.2,0.1-0.3c0,0,0.2-0.1,0.3-0.1c0,0,0.3-0.2,0.3-0.4c0,0,0,0,0,0c0.1,0,0.3,0.3,0.4,0.4c0,0,0,0,0,0
		c0.1,0.1,0.4,1.8,0.4,1.8c0,0.2,0.2,0.7,0.4,1.1c0,0,0,0,0,0c0,0,0.2,0.4,0.3,0.7c0.1,0.3,0.7,1.2,0.7,1.2c0.2,0.5,1.1,0.6,1.1,0.6
		c0.7,0.1,1.8,0.6,1.8,0.6c0.4,0.1,0.8,1.1,0.8,1.1c0.2,0.6,0.2,1,0.2,1.2c0,0.2-0.1,0.2-0.1,0.2c-0.1,0.5-1.1,1.4-1.1,1.4
		c-0.3,0.4-2.5,1.9-2.5,1.9c-0.4,0.3,0.3,1,0.3,1c0.6,0.9,0.4,1.3,0.4,1.3c0,0.2-1.3,1.4-1.3,1.4c-0.3,0.3-1.3,0.9-1.3,0.9
		c-0.5,0.3,0.2,1.4,0.2,1.4c0.5,0.9,1.6,1.1,1.6,1.1c0.7,0.3,1.4-0.9,1.4-0.9c0.8-1.4,1.5-2.1,1.5-2.1c0.3-0.6,1.6-1.4,1.6-1.4
		c0.5-0.3,0.6-1.1,0.6-1.1c0.1-0.8,0.3-1.7,0.3-1.7c0-0.9,1-3,1-3c0.3-0.5,0-0.9,0-0.9c-0.2-0.3-0.6-1.6-0.6-1.6
		c0-0.2-0.1-0.3-0.1-0.5c-0.1-0.7,0.1-1.2,0.1-1.2c0-0.7-0.6-1.7-0.6-1.7c-0.2-0.5-1.7-0.9-1.7-0.9c-1.3-0.1-2.5-0.8-2.5-0.8
		c-0.2-0.1-0.7-1-0.8-1.2c0,0,0-0.1,0-0.1c0,0-0.1-0.1-0.1-0.2c0-0.1,0-0.1,0-0.1c0,0,0,0,0.1,0c0.1,0,0.1,0,0.2,0
		c0,0,0.5,0.2,0.6,0.2c0,0,0.5,0.2,1.2,0c0,0,1.3-0.6,1.9-0.7c0,0,1.2-0.5,1.3-1.3c0,0,0.9-3.8,1.1-4.2c0,0,1.6-5.5,1.8-5.7l0.4-1.2
		C330.6,16.9,330.7,16.4,330,16.1 M302.4,28.9c-0.4,0-0.9,0.2-0.9,0.2c-0.9,0.4-0.9,0.5-0.9,0.5c-0.3,0.3-0.4,0.1-0.4,0.1
		c0-0.3,0.8-0.6,0.8-0.6c0.3-0.1,0-0.3,0-0.3c-0.3-0.1-0.9-0.2-0.9-0.2c-0.3-0.1-0.3,0.2-0.3,0.2c0,0.1,0.2,0.3,0.2,0.3
		c-0.1,0-0.3,0.2-0.3,0.2c-0.4,0.1-0.6-0.1-0.6-0.1c-0.2-0.3,0-0.8,0-0.8c0.1-0.2,0-0.3,0-0.3l-0.4-0.3c0,0-0.4-0.3-0.5-0.4
		c0,0-0.3-0.5,0.1-0.3c0,0,0.2,0.2,0.4,0.4c0,0,0.7,0.7,1.4,0.8c0,0,1.5,0.4,1.8,0.5c0,0,0.5,0,0.5,0
		C302.6,28.8,302.4,28.9,302.4,28.9 M319.6,29.5c0,0,0.1,0.2-0.2,0.3c0,0-1.1,0.1-1.9,0c0,0-1.1,0-1.5-0.2c0,0-0.5-0.3-0.6-0.3
		c0,0-0.6-0.1-0.7-0.2l-0.2-0.1c-0.2-0.1-0.3,0.2-0.3,0.2c0,0.4-0.8,1.2-0.8,1.2c-0.4,0.3-0.8,0.8-0.8,0.8c-0.5,0.3-0.7,0.9-0.7,0.9
		c-0.1,0.3-0.5,0.8-0.5,0.8c-0.3,0.5-0.9,0.6-0.9,0.6c-0.9,0-1.1-0.5-1.1-0.5c-0.1-0.5,0.3-0.1,0.3-0.1c0.1,0.2,0.4,0.3,0.4,0.3
		c0.3,0.2,0.8-0.2,0.8-0.2s0.6-0.4,0.7-0.9c0,0,0.1-0.5,0.7-1c0,0,0.8-0.8,1-1c0,0,0.6-0.6,0.5-1.4c0,0,0-0.7-0.4-1.2
		c0,0-0.7-1-1.4-1c0,0-1.3-0.2-2.3,0.9c0,0-0.3,0.4-0.7,0.2c0,0-0.6-0.3-1.8-0.2c0,0-1-0.1-1.5-0.4c0,0-0.6-0.4-0.7-0.4
		c0,0-0.2-0.1,0.1-0.3c0,0,0.4-0.2,0.7-0.1c0,0,0.8,0,0.3-0.3c0,0-0.6-0.1-1.2,0c0,0-1.2,0.3-2.1,0c0,0-2.3-0.3-2.9-0.7
		c0,0-1.6-0.5-1.8-0.8c0,0-0.2-0.2-0.7-0.3c0,0-0.4-0.2-0.4-0.5c0,0,0.1-0.2-0.1-0.6c0,0-0.3-0.3-0.2-0.5c0,0,0.2-0.3,0.6-0.2
		c0,0,0.4,0,1,0.2c0,0,0.6,0.2,0.2-0.4c0,0-0.8-0.3-1-0.2c0,0-0.4,0.1-0.4-0.5c0,0,0.1-0.5,0.6-0.7c0,0,1-0.1,0.5-0.3
		c0,0-0.5-0.4-0.7-0.4c0,0-0.5-0.1-0.2-0.6l0,0c0,0,0.1-0.3,0.4-0.3c0,0,0.5-0.2,0.6-0.5c0,0,0.2-0.4,0.1-0.5c0,0,0.1-0.4,0.7-0.1
		c0,0,2.7,0.9,3,1c0,0,1.9,0.9,2.6,1.5c0,0,1.5,0.8,1.7,0.9c0,0,0.7,0.4,0,0.4c0,0-2.1,0.1-2.6-0.1c0,0-1.4-0.3-1.5-0.4
		c0,0-0.6-0.3-0.3,0.1c0,0,0.9,0.6,2.1,0.7c0,0,1.1,0.2,3,0c0,0,1.6-0.1,2.7,0.5c0,0,1.8,0.7,1.9,0.9c0,0,0.6,0.2,0.7,0.3
		c0,0,0.4,0.3-0.1,0.3c0,0-0.5,0.2,0.3,0.4c0,0,1.2,0.1,2.2,0.7c0,0,1.9,1,2.3,1.4c0,0,1.1,0.6,1.3,0.7c0,0,0.9,0.5,0.9,1
		c0,0,0.1,0.5,0.1,0.6c0,0-0.1,0.1,0,0.4c0,0,0.1,0.2-0.1,0.4C319.6,29.3,319.6,29.4,319.6,29.5 M310.4,31.2c0,0,0.3,0.1,0.5-0.3
		c0,0,0-0.3,0-0.5c0,0,0.1-0.3,0.4-0.4c0,0,0.5-0.1,0.6-0.2c0,0,0.2-0.1,0.2-0.4v-0.1c0,0,0.1-0.5,0.2-0.1c0,0,0.1,0.3,0,0.4
		c0,0-0.1,0.3-0.5,0.4c0,0-0.6,0-0.6,0.4c0,0-0.1,0.6-0.3,0.8c0,0-0.4,0.3-0.7,0c0,0-0.3-0.3-0.2-0.6c0,0,0.1-0.4,0.2-0.1
		C310.2,30.7,310.1,31.1,310.4,31.2 M312.9,28c0,0-0.3-0.5-1-0.5c0,0-0.6,0-0.9,0.2c0,0-0.3,0.2-0.4,0.2c0,0-0.3,0.1-0.2-0.1
		l0.1-0.1c0,0,0.6-0.6,1.7-0.4c0,0,0.8,0.3,0.9,0.9c0,0,0.2,0.6,0,1c0,0-0.2,0.4-0.2,0C313.2,29.1,313.3,28.5,312.9,28 M320.2,29.7
		c0,0-0.1,0-0.2,0l0-0.1l0-0.1v0v0c0,0,0,0,0,0v0v0c0,0,0,0,0,0v0c0,0,0-0.1,0-0.1c0-0.2,0-0.3,0.1-0.4c0,0,0,0,0,0
		c0-0.1,0-0.1,0-0.2c0,0,0,0,0,0c0,0,0,0,0-0.1c0-0.1,0-0.2,0-0.3c0,0,0,0,0,0h0c0,0,0,0,0,0c0,0,0,0,0,0c0,0,0,0,0,0c0,0,0,0,0,0
		c0,0,0,0,0.1,0c0,0,0,0,0,0c0,0,0,0,0.1,0c0,0,0,0,0,0c0,0,0,0,0.1,0c0,0,0,0,0,0c0,0,0,0,0.1,0c0,0,0,0,0,0c0,0,0,0,0.1,0
		c0,0,0,0,0,0c0,0,0,0,0.1,0c0,0,0,0,0,0l0,0c0,0,0,0,0,0c0,0,0,0,0,0c0,0,0.1,0,0.1,0.1c0,0,0,0,0,0c0,0,0,0,0.1,0v0c0,0,0,0,0.1,0
		v0c0,0,0,0,0.1,0c0,0,0,0,0,0c0,0,0,0,0.1,0c0,0,0,0,0,0c0,0,0,0,0.1,0c0,0,0,0,0,0c0,0,0,0,0,0c0,0,0,0,0,0c0,0,0,0,0,0
		c0,0,0,0,0,0c0,0,0,0,0,0c0,0,0.2,0.1,0.2,0.2l0,0c0,0,0.2,0.4,0,0.4c0,0-0.1,0.1-0.2,0.2c0,0,0,0,0,0c0,0,0,0,0,0c0,0,0,0,0,0
		c0,0,0,0,0,0c0,0,0,0,0,0c0,0,0,0,0,0c0,0,0,0,0,0c0,0,0,0,0,0c0,0,0,0,0,0c0,0,0,0,0,0c0,0,0,0,0,0c0,0,0,0,0,0c0,0,0,0,0,0
		c0,0,0,0,0,0c0,0,0,0,0,0c0,0,0,0,0,0c0,0,0,0,0,0c0,0-0.1,0.1-0.1,0.1c0,0-0.1,0.1-0.2,0.1C320.7,29.8,320.3,29.7,320.2,29.7"/>
</g>
</svg>
